<mxfile host="app.diagrams.net" modified="2022-07-03T18:36:23.534Z" agent="5.0 (Windows NT 10.0; Win64; x64) AppleWebKit/537.36 (KHTML, like Gecko) Chrome/103.0.0.0 Safari/537.36" etag="n5_QCzuDXAx3hMAAPgYH" version="20.0.4" type="github">
  <diagram id="Kq0-8Cs4SJlKEejzkxdY" name="Page-1">
    <mxGraphModel dx="2005" dy="1604" grid="1" gridSize="10" guides="1" tooltips="1" connect="1" arrows="1" fold="1" page="1" pageScale="1" pageWidth="827" pageHeight="1169" math="0" shadow="0">
      <root>
        <mxCell id="0" />
        <mxCell id="1" parent="0" />
        <mxCell id="QlQQ5vbapS-88we6q0HZ-1" value="" style="rounded=0;whiteSpace=wrap;html=1;" vertex="1" parent="1">
          <mxGeometry x="-785" y="-1065" width="120" height="60" as="geometry" />
        </mxCell>
        <mxCell id="QlQQ5vbapS-88we6q0HZ-2" value="" style="rounded=0;whiteSpace=wrap;html=1;" vertex="1" parent="1">
          <mxGeometry x="-500" y="-1065" width="120" height="60" as="geometry" />
        </mxCell>
        <mxCell id="QlQQ5vbapS-88we6q0HZ-3" value="" style="rounded=0;whiteSpace=wrap;html=1;" vertex="1" parent="1">
          <mxGeometry x="-645" y="-1065" width="120" height="60" as="geometry" />
        </mxCell>
        <mxCell id="QlQQ5vbapS-88we6q0HZ-4" value="&lt;font style=&quot;font-size: 30px;&quot;&gt;Teacher&lt;/font&gt;" style="text;html=1;resizable=0;autosize=1;align=center;verticalAlign=middle;points=[];fillColor=none;strokeColor=none;rounded=0;" vertex="1" parent="1">
          <mxGeometry x="-650" y="-1065" width="130" height="50" as="geometry" />
        </mxCell>
        <mxCell id="QlQQ5vbapS-88we6q0HZ-5" value="&lt;font style=&quot;font-size: 30px;&quot;&gt;Student&lt;/font&gt;" style="text;html=1;resizable=0;autosize=1;align=center;verticalAlign=middle;points=[];fillColor=none;strokeColor=none;rounded=0;" vertex="1" parent="1">
          <mxGeometry x="-505" y="-1065" width="130" height="50" as="geometry" />
        </mxCell>
        <mxCell id="QlQQ5vbapS-88we6q0HZ-6" value="&lt;span style=&quot;font-size: 30px;&quot;&gt;Main&lt;/span&gt;" style="text;html=1;resizable=0;autosize=1;align=center;verticalAlign=middle;points=[];fillColor=none;strokeColor=none;rounded=0;" vertex="1" parent="1">
          <mxGeometry x="-770" y="-1065" width="90" height="50" as="geometry" />
        </mxCell>
        <mxCell id="QlQQ5vbapS-88we6q0HZ-7" value="" style="rounded=0;whiteSpace=wrap;html=1;fontSize=30;" vertex="1" parent="1">
          <mxGeometry x="-785" y="-935" width="120" height="60" as="geometry" />
        </mxCell>
        <mxCell id="QlQQ5vbapS-88we6q0HZ-8" value="api" style="text;html=1;resizable=0;autosize=1;align=center;verticalAlign=middle;points=[];fillColor=none;strokeColor=none;rounded=0;fontSize=30;" vertex="1" parent="1">
          <mxGeometry x="-755" y="-935" width="60" height="50" as="geometry" />
        </mxCell>
        <mxCell id="QlQQ5vbapS-88we6q0HZ-9" value="&lt;font color=&quot;#ff350d&quot;&gt;FRONTEND APPS&lt;/font&gt;" style="text;html=1;resizable=0;autosize=1;align=center;verticalAlign=middle;points=[];fillColor=none;strokeColor=none;rounded=0;fontSize=30;" vertex="1" parent="1">
          <mxGeometry x="-800" y="-1115" width="280" height="50" as="geometry" />
        </mxCell>
        <mxCell id="QlQQ5vbapS-88we6q0HZ-10" value="&lt;font color=&quot;#ff350d&quot;&gt;BACKEND APPS&lt;/font&gt;" style="text;html=1;resizable=0;autosize=1;align=center;verticalAlign=middle;points=[];fillColor=none;strokeColor=none;rounded=0;fontSize=30;" vertex="1" parent="1">
          <mxGeometry x="-800" y="-985" width="260" height="50" as="geometry" />
        </mxCell>
        <mxCell id="QlQQ5vbapS-88we6q0HZ-11" value="&lt;font color=&quot;#ff350d&quot;&gt;LIBS&lt;/font&gt;" style="text;html=1;resizable=0;autosize=1;align=center;verticalAlign=middle;points=[];fillColor=none;strokeColor=none;rounded=0;fontSize=30;" vertex="1" parent="1">
          <mxGeometry x="-800" y="-840" width="90" height="50" as="geometry" />
        </mxCell>
        <mxCell id="QlQQ5vbapS-88we6q0HZ-12" value="" style="rounded=0;whiteSpace=wrap;html=1;fontSize=30;fontColor=#FF350D;" vertex="1" parent="1">
          <mxGeometry x="-790" y="-790" width="90" height="30" as="geometry" />
        </mxCell>
        <mxCell id="QlQQ5vbapS-88we6q0HZ-13" value="painter" style="text;html=1;resizable=0;autosize=1;align=center;verticalAlign=middle;points=[];fillColor=none;strokeColor=none;rounded=0;fontSize=16;" vertex="1" parent="1">
          <mxGeometry x="-785" y="-790" width="70" height="30" as="geometry" />
        </mxCell>
        <mxCell id="QlQQ5vbapS-88we6q0HZ-15" value="" style="rounded=0;whiteSpace=wrap;html=1;fontSize=30;fontColor=#FF350D;" vertex="1" parent="1">
          <mxGeometry x="-680" y="-790" width="90" height="30" as="geometry" />
        </mxCell>
        <mxCell id="QlQQ5vbapS-88we6q0HZ-16" value="theme" style="text;html=1;resizable=0;autosize=1;align=center;verticalAlign=middle;points=[];fillColor=none;strokeColor=none;rounded=0;fontSize=16;" vertex="1" parent="1">
          <mxGeometry x="-675" y="-790" width="70" height="30" as="geometry" />
        </mxCell>
      </root>
    </mxGraphModel>
  </diagram>
</mxfile>
